<?xml version="1.0" encoding="UTF-8" standalone="no"?>
<svg
   xmlns:dc="http://purl.org/dc/elements/1.1/"
   xmlns:cc="http://creativecommons.org/ns#"
   xmlns:rdf="http://www.w3.org/1999/02/22-rdf-syntax-ns#"
   xmlns:svg="http://www.w3.org/2000/svg"
   xmlns="http://www.w3.org/2000/svg"
   xmlns:sodipodi="http://sodipodi.sourceforge.net/DTD/sodipodi-0.dtd"
   xmlns:inkscape="http://www.inkscape.org/namespaces/inkscape"
   sodipodi:docname="rect_logo.svg"
   inkscape:version="1.0 (4035a4fb49, 2020-05-01)"
   id="svg8"
   version="1.1"
   viewBox="0 0 169.99998 184.99998"
   height="184.99998mm"
   width="169.99998mm"
   inkscape:export-filename="C:\Users\halls\Documents\Logo rectangular.png"
   inkscape:export-xdpi="96"
   inkscape:export-ydpi="96">
  <defs
     id="defs2">
    <marker
       inkscape:isstock="true"
       style="overflow:visible"
       id="Arrow1Lstart"
       refX="0"
       refY="0"
       orient="auto"
       inkscape:stockid="Arrow1Lstart">
      <path
         inkscape:connector-curvature="0"
         transform="matrix(0.8,0,0,0.8,10,0)"
         style="fill-rule:evenodd;stroke:#000000;stroke-width:1pt"
         d="M 0,0 5,-5 -12.5,0 5,5 Z"
         id="path1212" />
    </marker>
  </defs>
  <sodipodi:namedview
     inkscape:document-rotation="0"
     inkscape:window-maximized="0"
     inkscape:window-y="-16000"
     inkscape:window-x="-16000"
     inkscape:window-height="938"
     inkscape:window-width="1500"
     inkscape:snap-text-baseline="true"
     inkscape:snap-others="true"
     inkscape:snap-nodes="false"
     inkscape:snap-bbox="true"
     inkscape:snap-midpoints="true"
     inkscape:object-paths="true"
     inkscape:snap-intersection-paths="true"
     inkscape:object-nodes="true"
     inkscape:snap-smooth-nodes="true"
     inkscape:guide-bbox="true"
     inkscape:lockguides="true"
     showguides="true"
     showgrid="false"
     inkscape:current-layer="layer1"
     inkscape:document-units="mm"
     inkscape:cy="551.16333"
     inkscape:cx="-117.30018"
     inkscape:zoom="0.34315476"
     inkscape:pageshadow="2"
     inkscape:pageopacity="0.0"
     borderopacity="1.0"
     bordercolor="#666666"
     pagecolor="#ffffff"
     id="base" />
  <metadata
     id="metadata5">
    <rdf:RDF>
      <cc:Work
         rdf:about="">
        <dc:format>image/svg+xml</dc:format>
        <dc:type
           rdf:resource="http://purl.org/dc/dcmitype/StillImage" />
        <dc:title></dc:title>
      </cc:Work>
    </rdf:RDF>
  </metadata>
  <g
     transform="translate(597.0932,118.38436)"
     id="layer1"
     inkscape:groupmode="layer"
     inkscape:label="Layer 1">
    <flowRoot
       transform="scale(0.26458333)"
       style="font-style:normal;font-variant:normal;font-weight:normal;font-stretch:normal;font-size:24px;line-height:1.25;font-family:Impact;-inkscape-font-specification:Impact;letter-spacing:0px;word-spacing:0px;fill:#000000;fill-opacity:1;stroke:none"
       id="flowRoot4546"
       xml:space="preserve"><flowRegion
         id="flowRegion4548"><rect
           y="194.51968"
           x="140"
           height="108"
           width="140"
           id="rect4550" /></flowRegion><flowPara
         id="flowPara4552" /></flowRoot>
    <flowRoot
       transform="scale(0.26458333)"
       style="font-style:normal;font-variant:normal;font-weight:normal;font-stretch:normal;font-size:24px;line-height:1.25;font-family:Impact;-inkscape-font-specification:Impact;letter-spacing:0px;word-spacing:0px;fill:#000000;fill-opacity:1;stroke:none"
       id="flowRoot5097"
       xml:space="preserve"><flowRegion
         id="flowRegion5099"><rect
           y="290.96213"
           x="-1165.312"
           height="444.06305"
           width="1063.4886"
           id="rect5101" /></flowRegion><flowPara
         id="flowPara5103" /></flowRoot>
    <flowRoot
       transform="scale(0.26458333)"
       style="font-style:normal;font-variant:normal;font-weight:normal;font-stretch:normal;font-size:24px;line-height:1.25;font-family:Impact;-inkscape-font-specification:Impact;letter-spacing:0px;word-spacing:0px;fill:#000000;fill-opacity:1;stroke:none"
       id="flowRoot5694"
       xml:space="preserve"><flowRegion
         id="flowRegion5696"><rect
           y="714.51971"
           x="-1388"
           height="216"
           width="592"
           id="rect5698" /></flowRegion><flowPara
         id="flowPara5700" /></flowRoot>
    <flowRoot
       transform="matrix(0.26458333,0,0,0.26458333,-35.084698,55.900735)"
       style="font-style:normal;font-variant:normal;font-weight:normal;font-stretch:normal;font-size:24px;line-height:1.25;font-family:Impact;-inkscape-font-specification:Impact;letter-spacing:0px;word-spacing:0px;fill:#000000;fill-opacity:1;stroke:none"
       id="flowRoot6318"
       xml:space="preserve"><flowRegion
         id="flowRegion6320"><rect
           y="464.62561"
           x="1264"
           height="196"
           width="656"
           id="rect6322" /></flowRegion><flowPara
         id="flowPara6324" /></flowRoot>
    <flowRoot
       transform="matrix(0.26458333,0,0,0.26458333,-35.084698,55.900735)"
       style="font-style:normal;font-variant:normal;font-weight:normal;font-stretch:normal;font-size:24px;line-height:1.25;font-family:Impact;-inkscape-font-specification:Impact;letter-spacing:0px;word-spacing:0px;fill:#000000;fill-opacity:1;stroke:none"
       id="flowRoot6326"
       xml:space="preserve"><flowRegion
         id="flowRegion6328"><rect
           y="496.62561"
           x="1156"
           height="72"
           width="668"
           id="rect6330" /></flowRegion><flowPara
         id="flowPara6332" /></flowRoot>
    <flowRoot
       transform="matrix(0.26458333,0,0,0.26458333,-231.9347,44.58814)"
       style="font-style:normal;font-variant:normal;font-weight:normal;font-stretch:normal;font-size:24px;line-height:1.25;font-family:Impact;-inkscape-font-specification:Impact;letter-spacing:0px;word-spacing:0px;fill:#000000;fill-opacity:1;stroke:none"
       id="flowRoot6459"
       xml:space="preserve"><flowRegion
         id="flowRegion6461"><rect
           y="238.67435"
           x="1374.6156"
           height="38.183765"
           width="84.852814"
           id="rect6463" /></flowRegion><flowPara
         id="flowPara6465" /></flowRoot>
    <flowRoot
       transform="matrix(0.26458333,0,0,0.26458333,-231.9347,44.58814)"
       style="font-style:normal;font-variant:normal;font-weight:normal;font-stretch:normal;font-size:24px;line-height:1.25;font-family:Impact;-inkscape-font-specification:Impact;letter-spacing:0px;word-spacing:0px;fill:#000000;fill-opacity:1;stroke:none"
       id="flowRoot6471"
       xml:space="preserve"><flowRegion
         id="flowRegion6473"><rect
           y="719.50696"
           x="1042.2754"
           height="582.65601"
           width="602.45496"
           id="rect6475" /></flowRegion><flowPara
         id="flowPara6477" /></flowRoot>
    <flowRoot
       transform="matrix(0.26458333,0,0,0.26458333,-490.49515,502.93103)"
       style="font-style:normal;font-variant:normal;font-weight:normal;font-stretch:normal;font-size:24px;line-height:1.25;font-family:Impact;-inkscape-font-specification:Impact;letter-spacing:0px;word-spacing:0px;fill:#000000;fill-opacity:1;stroke:none"
       id="flowRoot874"
       xml:space="preserve"><flowRegion
         id="flowRegion876"><rect
           y="128.47246"
           x="1160"
           height="292"
           width="216"
           id="rect878" /></flowRegion><flowPara
         id="flowPara880" /></flowRoot>
    <g
       id="g987">
      <rect
         y="-114.79958"
         x="-593.50842"
         height="177.83043"
         width="162.83043"
         id="rect6584-9-0"
         style="fill:#2b2d2f;fill-opacity:1;fill-rule:evenodd;stroke:#ffcc00;stroke-width:7.16956;stroke-linecap:square;stroke-linejoin:miter;stroke-miterlimit:4;stroke-dasharray:none;stroke-dashoffset:33.1087;stroke-opacity:1;paint-order:markers fill stroke" />
      <g
         id="g957">
        <g
           aria-label="roofing"
           transform="matrix(0.21096415,0,0,0.210519,-873.50472,-117.79867)"
           id="flowRoot6338-0"
           style="font-style:normal;font-variant:normal;font-weight:normal;font-stretch:normal;font-size:166.667px;line-height:1.25;font-family:'Baskerville Old Face';-inkscape-font-specification:'Baskerville Old Face, Normal';font-variant-ligatures:normal;font-variant-caps:normal;font-variant-numeric:normal;font-feature-settings:normal;text-align:center;letter-spacing:0px;word-spacing:0px;writing-mode:lr-tb;text-anchor:middle;fill:#ffcc00;fill-opacity:1;stroke:#ffcc00;stroke-width:3.83749;stroke-miterlimit:4;stroke-dasharray:none;stroke-opacity:1">
          <path
             d="m 1499.8847,729.3197 q 2.9297,-5.12696 6.5918,-7.73113 6.7545,-4.80144 15.3809,-4.80144 5.2897,0 8.0566,2.36003 2.5228,2.11589 2.5228,5.20834 0,2.27865 -1.5462,3.7435 -1.4649,1.46484 -3.8249,1.46484 -2.7669,0 -4.8014,-2.27865 l -2.5228,-2.76693 q -3.0111,-3.17383 -7.0801,-3.17383 -5.5339,0 -8.6263,7.16147 -3.0925,7.16147 -3.0925,19.93819 v 15.21813 l 0.081,6.18491 q 0,5.53387 0.651,8.13804 0.6511,2.52279 2.5228,4.23178 2.2787,2.19727 8.3822,3.33659 v 1.62761 h -35.8887 v -1.62761 q 4.8828,-0.65104 6.9987,-1.79037 2.1159,-1.2207 3.4179,-4.06901 0.8952,-1.87175 1.2207,-5.61525 0.4069,-3.82488 0.4069,-10.98635 v -20.10095 q 0,-8.38218 -0.4069,-11.71878 -0.4069,-3.41797 -1.7903,-5.53386 -1.3835,-2.27865 -3.3366,-3.25522 -1.9531,-1.05794 -5.6153,-1.30208 v -1.62761 l 20.9148,-2.92969 q 1.3835,7.40561 1.3835,12.69533 z"
             id="path959" />
          <path
             d="m 1537.401,752.83863 q 0,-13.18362 9.7657,-23.51893 11.8815,-12.53257 28.4017,-12.53257 16.5202,0 28.3204,12.53257 9.7656,10.41669 9.7656,23.60031 0,13.02086 -9.2773,23.19341 -11.3933,12.53258 -28.8087,12.53258 -17.4154,0 -28.89,-12.53258 -4.4759,-4.88282 -6.9174,-10.90497 -2.36,-6.02215 -2.36,-12.36982 z m 14.8112,-0.89518 q 0,14.16018 6.3477,24.00721 7.1615,10.98635 17.4968,10.98635 4.3945,0 8.5449,-2.44141 4.1504,-2.44141 7.1615,-6.83595 3.1738,-4.5573 5.127,-11.39326 1.9531,-6.91733 1.9531,-13.34638 0,-6.67319 -2.1159,-13.42776 -2.0345,-6.83595 -5.5339,-11.71877 -6.6732,-9.19599 -16.3574,-9.19599 -9.196,0 -15.8692,9.68427 -6.7546,9.68426 -6.7546,23.68169 z"
             id="path961" />
          <path
             d="m 1623.6642,752.83863 q 0,-13.18362 9.7657,-23.51893 11.8815,-12.53257 28.4017,-12.53257 16.5202,0 28.3204,12.53257 9.7656,10.41669 9.7656,23.60031 0,13.02086 -9.2773,23.19341 -11.3933,12.53258 -28.8087,12.53258 -17.4154,0 -28.89,-12.53258 -4.4759,-4.88282 -6.9174,-10.90497 -2.36,-6.02215 -2.36,-12.36982 z m 14.8112,-0.89518 q 0,14.16018 6.3477,24.00721 7.1615,10.98635 17.4968,10.98635 4.3945,0 8.5449,-2.44141 4.1504,-2.44141 7.1615,-6.83595 3.1738,-4.5573 5.127,-11.39326 1.9531,-6.91733 1.9531,-13.34638 0,-6.67319 -2.1159,-13.42776 -2.0345,-6.83595 -5.5339,-11.71877 -6.6732,-9.19599 -16.3574,-9.19599 -9.196,0 -15.8692,9.68427 -6.7546,9.68426 -6.7546,23.68169 z"
             id="path963" />
          <path
             d="m 1731.4118,721.10029 v 42.56193 l 0.081,6.18491 q 0,5.53387 0.6511,8.13804 0.651,2.52279 2.5227,4.23178 2.2787,2.19727 8.3822,3.33659 v 1.62761 h -35.8887 v -1.62761 q 4.8828,-0.65104 6.9987,-1.79037 2.1159,-1.2207 3.418,-4.06901 0.8951,-1.87175 1.2207,-5.61525 0.4069,-3.82488 0.4069,-10.98635 v -41.99227 h -11.8002 v -3.09246 h 11.8002 v -19.85681 q 0,-7.16147 1.7903,-11.31187 1.8718,-4.1504 6.5918,-7.64976 4.2318,-3.09245 10.3354,-4.80144 6.1849,-1.79037 13.0208,-1.79037 6.3477,0 10.1726,2.19727 3.8248,2.19727 3.8248,5.85939 0,2.44141 -1.6276,4.06902 -1.5462,1.62761 -3.8248,1.62761 -2.1973,0 -3.8249,-1.13933 -1.6276,-1.22071 -3.2552,-3.90626 -2.2787,-3.74349 -3.7435,-4.88282 -1.4649,-1.22071 -3.9877,-1.22071 -3.0924,0 -5.8594,1.30209 -2.7669,1.22071 -4.3131,3.25522 -1.709,2.27865 -2.36,6.02214 -0.6511,3.66212 -0.6511,10.66083 v 21.5658 h 16.0319 v 3.09246 z"
             id="path965" />
          <path
             d="m 1754.6052,719.55406 23.3562,-2.92969 v 47.03785 l 0.081,6.18491 q 0,5.53387 0.651,8.13804 0.6511,2.52279 2.5228,4.23178 2.2787,2.19727 8.3822,3.33659 v 1.62761 h -35.8887 v -1.62761 q 4.8828,-0.65104 6.9987,-1.79037 2.1159,-1.2207 3.4179,-4.06901 0.8952,-1.87175 1.2207,-5.61525 0.4069,-3.82488 0.4069,-10.98635 v -20.10095 q 0,-8.38218 -0.4069,-11.71878 -0.4069,-3.41797 -1.7903,-5.53386 -1.3835,-2.27865 -3.3366,-3.25522 -1.9531,-1.05794 -5.6153,-1.30208 z m 16.9272,-31.98249 q -3.1739,0 -5.2898,-2.03451 -2.0345,-2.03451 -2.0345,-5.12696 0,-3.01108 2.1159,-5.04558 2.1159,-2.11589 5.2084,-2.11589 3.0924,0 5.2083,2.11589 2.1159,2.0345 2.1159,5.04558 0,3.09245 -2.1159,5.12696 -2.0345,2.03451 -5.2083,2.03451 z"
             id="path967" />
          <path
             d="m 1817.1867,716.62437 q 1.1394,4.72006 1.1394,8.78908 v 1.30208 q 10.0911,-9.9284 24.0072,-9.9284 10.4167,0 16.7643,4.88282 6.2663,4.80144 6.2663,13.6719 v 34.50528 q 0,5.53387 0.6511,8.13804 0.651,2.52279 2.5227,4.23178 2.2787,2.19727 8.3822,3.33659 v 1.62761 h -35.8887 v -1.62761 q 4.8828,-0.65104 6.9987,-1.79037 2.1159,-1.2207 3.418,-4.06901 0.8952,-1.87175 1.2207,-5.61525 0.4069,-3.82488 0.4069,-10.90497 V 745.9213 q 0,-8.87046 -0.6511,-13.02086 -0.5696,-4.1504 -2.2786,-6.67319 -1.8718,-2.84831 -5.3711,-4.39454 -3.4994,-1.62761 -7.7312,-1.62761 -4.5573,0 -8.5449,1.79037 -3.9063,1.79037 -6.1849,4.88282 -2.4414,3.25522 -3.2552,7.40562 -0.7324,4.06902 -0.7324,13.59052 v 15.95055 l 0.081,6.02215 q 0,5.53387 0.6511,8.13804 0.651,2.52279 2.5228,4.23178 2.2786,2.19727 8.3822,3.33659 v 1.62761 h -35.8888 v -1.62761 q 4.8828,-0.65104 6.9987,-1.79037 2.1159,-1.2207 3.418,-4.06901 0.8952,-1.87175 1.2207,-5.61525 0.4069,-3.82488 0.4069,-10.98635 v -20.10095 q 0,-8.38218 -0.4069,-11.71878 -0.4069,-3.41797 -1.7904,-5.53386 -1.3834,-2.27865 -3.3366,-3.25522 -1.9531,-1.05794 -5.6152,-1.30208 v -1.62761 z"
             id="path969" />
          <path
             d="m 1901.334,794.09848 -1.4648,0.4069 q -1.3835,-2.27865 -2.7669,-3.17383 -1.3835,-0.89519 -3.418,-0.89519 -3.418,0 -5.6153,2.60418 -2.1158,2.60417 -2.1158,6.75457 0,6.59181 6.5918,10.82359 6.5918,4.23178 16.8457,4.23178 10.905,0 17.5782,-4.72006 6.7545,-4.63869 6.7545,-12.12568 0,-6.02215 -4.4759,-9.27736 -4.4759,-3.17384 -12.7767,-3.17384 h -12.9395 q -7.9753,0 -12.8581,-3.74349 -5.0456,-3.90626 -5.0456,-9.35875 0,-5.778 5.3711,-9.1146 2.767,-1.62761 10.0912,-3.49936 -7.0801,-3.25521 -10.9863,-8.54494 -3.9063,-5.3711 -3.9063,-11.80015 0,-8.21942 6.1035,-14.64847 3.5808,-3.82487 8.4636,-5.94076 4.8828,-2.11589 10.0098,-2.11589 7.8125,0 15.9505,5.53386 3.8249,-3.01107 6.836,-4.23178 3.0924,-1.30208 6.6732,-1.30208 3.9876,0 6.429,1.70898 2.9297,2.11589 2.9297,5.20835 0,1.87175 -1.1393,3.17383 -1.1393,1.22071 -2.8483,1.22071 -2.6042,0 -4.7201,-2.76693 l -1.8717,-2.44142 q -1.5463,-1.95313 -4.3946,-1.95313 -3.0111,0 -6.3477,3.01108 6.5919,8.05666 6.5919,16.6016 0,10.66082 -9.4402,16.84573 -4.72,3.09246 -10.1725,4.1504 -1.6276,0.24414 -10.3353,0.81381 -11.9629,0.73242 -11.9629,6.67319 0,5.20834 10.1725,5.20834 h 13.4278 q 7.0801,0 11.9629,1.30209 4.8828,1.2207 8.5449,3.90625 7.1615,5.28973 7.1615,14.89261 0,10.57945 -8.3008,16.52022 -8.5449,6.10353 -25.0652,6.10353 -17.7409,0 -25.1465,-7.16148 -4.72,-4.63868 -4.72,-11.55601 0,-5.45248 3.4993,-9.27736 3.4994,-3.7435 8.5449,-3.7435 3.6622,0 5.9408,2.19727 2.36,2.19727 2.36,5.77801 z m -3.5807,-54.03657 q 0,8.78908 3.6621,14.32295 3.7435,5.53386 9.5215,5.53386 5.8594,0 9.1146,-5.45248 3.2552,-5.53387 3.2552,-15.29951 0,-10.09117 -4.2317,-16.11332 -3.0925,-4.47592 -7.9753,-4.47592 -5.8594,0 -9.4401,5.85939 -1.7904,2.92969 -2.8483,7.16147 -1.058,4.23178 -1.058,8.46356 z"
             id="path971" />
        </g>
        <path
           inkscape:connector-curvature="0"
           id="path887-3-7-3"
           style="font-style:normal;font-variant:normal;font-weight:normal;font-stretch:condensed;font-size:201.253px;line-height:1.25;font-family:Impact;-inkscape-font-specification:'Impact, Condensed';font-variant-ligatures:normal;font-variant-caps:normal;font-variant-numeric:normal;font-feature-settings:normal;text-align:start;letter-spacing:0px;word-spacing:0px;writing-mode:lr-tb;text-anchor:start;fill:#ffcc00;fill-opacity:1;stroke:#ffcc00;stroke-width:0.521598;stroke-opacity:0"
           d="m -543.51333,-22.200196 h -19.42616 v -4.561808 q 0,-7.893497 1.79402,-12.147758 1.84514,-4.305519 7.32959,-7.58595 5.48445,-3.280364 14.24926,-3.280364 10.50758,0 15.83825,3.741684 5.33068,3.690493 6.40702,9.123616 1.07635,5.381933 1.07635,22.245271 v 34.136741 h -20.1437 v -6.048217 q -1.89647,3.639168 -4.92062,5.484381 -2.97288,1.793955 -7.12463,1.793955 -5.43312,0 -9.99499,-3.024075 -4.51055,-3.075399 -4.51055,-13.3779437 v -5.5868969 q 0,-7.6372073 2.40904,-10.4050604 2.40905,-2.767852 11.94273,-6.458279 10.20003,-3.998039 10.91757,-5.381932 0.71768,-1.383959 0.71768,-5.638221 0,-5.330674 -0.82013,-6.919599 -0.76886,-1.640182 -2.61408,-1.640182 -2.1015,0 -2.61408,1.383894 -0.51257,1.332701 -0.51257,7.022114 z m 6.56086,9.328647 q -4.97187,3.6392345 -5.792,6.0995407 -0.76886,2.4603062 -0.76886,7.07337198 0,5.27941672 0.66635,6.81708322 0.71761,1.5377328 2.76785,1.5377328 1.94773,0 2.51156,-1.1789285 0.61483,-1.2301199 0.61483,-6.3557633 z" />
        <path
           style="font-style:normal;font-variant:normal;font-weight:normal;font-stretch:condensed;font-size:201.253px;line-height:1.25;font-family:Impact;-inkscape-font-specification:'Impact, Condensed';font-variant-ligatures:normal;font-variant-caps:normal;font-variant-numeric:normal;font-feature-settings:normal;text-align:start;letter-spacing:0px;word-spacing:0px;writing-mode:lr-tb;text-anchor:start;fill:#ffcc00;fill-opacity:1;stroke:#ffcc00;stroke-width:0.521598;stroke-opacity:0"
           sodipodi:nodetypes="cccsccsccscssscccc"
           inkscape:connector-curvature="0"
           id="path889-5-7-9"
           d="m -488.4131,-106.10059 v 61.245127 c 1.77689,-1.640249 3.69083,-2.870369 5.74107,-3.690493 2.08444,-0.820058 4.30552,-1.23012 6.66331,-1.23012 3.6221,0 6.6975,0.922574 9.22613,2.767853 2.56282,1.845213 4.11762,3.980909 4.66433,6.407021 0.58096,2.391985 0.87138,6.782889 0.87138,13.172847 v 46.899591 h -20.70754 v -47.873422 c 0,-3.963845 -0.20516,-6.509537 -0.61483,-7.637208 -0.3758,-1.127604 -1.24725,-1.69144 -2.61408,-1.69144 -1.26431,0 -2.11856,0.580966 -2.56282,1.742698 -0.44419,1.161798 -0.66635,3.468331 -0.66635,6.919599 v 48.539773 h -20.70754 l 0.005,-125.571826 z" />
        <path
           id="rect6533-8-5-1-0"
           style="fill:#ffcc00;fill-opacity:1;fill-rule:evenodd;stroke:#ffcc00;stroke-width:0.405699;stroke-linecap:square;stroke-linejoin:miter;stroke-miterlimit:4;stroke-dasharray:none;stroke-dashoffset:33.1087;stroke-opacity:0;paint-order:markers fill stroke"
           d="m -512.09465,-98.638401 70.47033,47.507846 h -20.30671 l -50.16362,-33.782252 -50.15373,33.782252 h -20.31374 z"
           inkscape:connector-curvature="0"
           sodipodi:nodetypes="ccccccc" />
      </g>
    </g>
  </g>
</svg>
